Genre:Comedy | Drama | Romance
Language:English  http://www.imdb.com/title/tt1535565/
Source:DVD
Subtitles:Romana



 
http://www.youtube.com/watch?v=krG91OEJg_M&feature=player_embedded

General
Complete name
Format : MPEG-4
Format profile : Base Media
Codec ID : isom
File size : 1 023 MiB
Duration : 1h 24mn
Overall bit rate : 1 685 Kbps
Video #1
Codec ID : avc1
Codec ID/Info : Advanced Video Coding
Duration : 1h 24mn
Bit rate mode : Variable
Bit rate : 1 515 Kbps
Width : 720 pixels
Height : 384 pixels
Display aspect ratio : 1.875
Frame rate mode : Constant
Frame rate : 25.000 fps
Resolution : 24 bits
Colorimetry : 4:2:0
Scan type : Progressive
Bits/(Pixel*Frame) : 0.219
Stream size : 919 MiB (90%)
Audio #2
ID : 2
Format : AAC
Format/Info : Advanced Audio Codec
Format version : Version 4
Format profile : LC
Format settings, SBR : No
Codec ID : 40
Duration : 1h 24mn
Bit rate mode : Variable
Bit rate : 165 Kbps
Channel(s) : 2 channels
Channel positions : L R
Sampling rate : 48.0 KHz
Resolution : 16 bits
Stream size : 100 MiB (10%)